<?xml version="1.0" standalone="no"?>
<!DOCTYPE svg PUBLIC "-//W3C//DTD SVG 20010904//EN"
 "http://www.w3.org/TR/2001/REC-SVG-20010904/DTD/svg10.dtd">
<svg version="1.0" xmlns="http://www.w3.org/2000/svg"
 width="512.000000pt" height="512.000000pt" viewBox="0 0 512.000000 512.000000"
 preserveAspectRatio="xMidYMid meet">
<metadata>
Created by potrace 1.14, written by Peter Selinger 2001-2017
</metadata>
<g transform="translate(0.000000,512.000000) scale(0.100000,-0.100000)"
fill="#000000" stroke="none">
<path d="M2497 5114 c-1 -1 -49 -4 -107 -8 -112 -7 -135 -10 -245 -28 -38 -7
-74 -13 -80 -14 -5 0 -23 -4 -40 -8 -16 -4 -65 -16 -107 -27 -762 -189 -1433
-779 -1728 -1519 -36 -91 -102 -295 -114 -352 -3 -13 -12 -54 -20 -93 -20 -96
-33 -187 -44 -327 -12 -144 -6 -370 14 -515 11 -88 16 -113 35 -207 133 -640
537 -1234 1087 -1598 308 -203 626 -328 997 -393 113 -20 166 -23 410 -23 154
0 307 4 340 9 33 4 80 11 105 15 25 3 48 8 51 10 3 2 21 6 40 9 105 18 339 89
449 137 115 50 356 173 370 189 3 3 23 16 45 29 167 99 436 339 588 525 242
294 437 684 512 1022 19 84 35 165 39 198 3 22 10 69 15 105 10 68 8 596 -2
640 -3 14 -11 54 -17 90 -15 96 -18 109 -45 211 -168 644 -565 1185 -1127
1537 -343 215 -770 352 -1173 378 -84 5 -245 10 -248 8z"/>
</g>
</svg>
